<?xml version="1.0" encoding="UTF-8"?>
<!DOCTYPE svg PUBLIC "-//W3C//DTD SVG 1.0//EN" "http://www.w3.org/TR/2001/REC-SVG-20010904/DTD/svg10.dtd">
<!-- Creator: CorelDRAW 2018 (64-Bit Evaluation Version) -->
<svg xmlns="http://www.w3.org/2000/svg" xml:space="preserve" width="23.7242mm" height="32.8965mm" version="1.0" style="shape-rendering:geometricPrecision; text-rendering:geometricPrecision; image-rendering:optimizeQuality; fill-rule:evenodd; clip-rule:evenodd"
viewBox="0 0 210.46 291.83"
 xmlns:xlink="http://www.w3.org/1999/xlink">
 <defs>
  <style type="text/css">
   <![CDATA[
    .fil1 {fill:#FF5722}
    .fil0 {fill:white}
   ]]>
  </style>
 </defs>
 <g id="Layer_x0020_1">
  <metadata id="CorelCorpID_0Corel-Layer"/>
  <path class="fil0" d="M-0 0l210.46 0 0 291.83 -210.46 0 0 -291.83zm104.99 271.38c13.74,0.48 33.02,-0.48 37.84,-8.43 3.13,-5.3 2.65,-18.56 -0.24,-25.07 -5.3,-11.33 -22.42,-7.95 -37.6,-7.71 -15.19,-0.24 -32.3,-3.61 -37.6,7.71 -3.13,6.51 -3.37,19.77 -0.24,25.07 4.82,7.95 24.11,8.68 37.84,8.43zm-41.46 -8.43c-2.17,-9.88 -0.72,-26.03 5.06,-32.54 8.68,-9.64 22.42,-4.34 36.4,-4.34l0.24 0c14.22,0 27.72,-5.3 36.4,4.34 5.79,6.51 7.23,22.42 5.06,32.54 33.51,5.06 32.06,-61.23 29.41,-81.71 -7.23,-56.89 -51.1,-21.45 -69.42,-20.97 -0.48,0 -0.96,0 -1.45,0l-0.24 0 -0.24 0c-0.48,0 -0.97,0 -1.45,0 -18.32,-0.48 -62.19,-36.16 -69.42,20.97 -2.65,20.49 -4.1,86.77 29.41,81.71l0.24 0 -0 0zm109.92 -100.52c3.61,-9.88 7.23,-39.05 9.16,-50.14 3.37,-19.04 5.06,-33.99 1.69,-52.55 -7.71,-42.18 -38.57,-39.53 -79.06,-39.29 -40.49,0 -71.35,-2.65 -79.06,39.29 -3.37,18.56 -1.69,33.51 1.69,52.55 1.93,11.09 5.79,40.25 9.16,50.14 12.05,-37.84 50.14,-8.2 66.77,-7.95 0.48,0 0.97,0 1.45,0l0.24 0 0.24 0c0.48,0 0.97,0 1.45,0 16.63,-0.48 54.48,-29.89 66.77,7.95l-0.48 0 0 0z"/>
  <g id="_2718096953568">
   <path class="fil1" d="M173.45 162.43c3.62,-9.88 7.23,-39.05 9.16,-50.14 3.37,-19.04 5.06,-33.99 1.69,-52.55 -7.71,-42.18 -38.57,-39.53 -79.06,-39.29 -40.49,0 -71.35,-2.65 -79.06,39.29 -3.37,18.56 -1.69,33.51 1.69,52.55 1.93,11.09 5.79,40.25 9.16,50.14 12.05,-37.84 50.14,-8.2 66.77,-7.95 0.48,0 0.96,0 1.45,0l0.24 0 0.24 0c0.48,0 0.96,0 1.45,0 16.63,-0.48 54.48,-29.89 66.77,7.95l-0.48 0z"/>
   <path class="fil1" d="M63.53 262.95c-2.17,-9.88 -0.72,-26.03 5.06,-32.54 8.68,-9.64 22.42,-4.34 36.4,-4.34l0.24 0c14.22,0 27.72,-5.3 36.4,4.34 5.78,6.51 7.23,22.42 5.06,32.54 33.51,5.06 32.06,-61.23 29.41,-81.72 -7.23,-56.89 -51.1,-21.45 -69.42,-20.97 -0.48,0 -0.96,0 -1.45,0l-0.24 0 -0.24 0c-0.48,0 -0.96,0 -1.45,0 -18.32,-0.48 -62.19,-36.16 -69.42,20.97 -2.65,20.49 -4.1,86.77 29.41,81.72l0.24 0z"/>
   <path class="fil1" d="M104.99 271.38c13.74,0.48 33.02,-0.48 37.84,-8.43 3.13,-5.3 2.65,-18.56 -0.24,-25.07 -5.3,-11.33 -22.42,-7.95 -37.6,-7.71 -15.19,-0.24 -32.3,-3.61 -37.6,7.71 -3.13,6.51 -3.37,19.77 -0.24,25.07 4.82,7.95 24.1,8.68 37.84,8.43z"/>
  </g>
 </g>
</svg>
